#N canvas 0 0 500 380 10;
#X obj 50 20 loadbang;
#X obj 50 50 voice;
#X obj 50 80 * 16;
#X obj 50 110 + 220;
#X obj 50 140 sig~;
#X obj 260 60 osc~ 0.11;
#X obj 260 90 *~ 4;
#X obj 50 170 +~;
#X obj 50 200 osc~;
#X obj 370 60 osc~ 0.05;
#X obj 370 90 *~ 0.02;
#X obj 370 120 +~ 0.045;
#X obj 50 240 *~;
#X obj 50 280 outlet~;
#X obj 210 240 *~ 2;
#X obj 210 270 send~ rev_in;
#X connect 0 0 1 0;
#X connect 1 0 2 0;
#X connect 2 0 3 0;
#X connect 3 0 4 0;
#X connect 4 0 7 0;
#X connect 5 0 6 0;
#X connect 6 0 7 1;
#X connect 7 0 8 0;
#X connect 8 0 12 0;
#X connect 9 0 10 0;
#X connect 10 0 11 0;
#X connect 11 0 12 1;
#X connect 12 0 13 0;
#X connect 12 0 14 0;
#X connect 14 0 15 0;
