#N canvas 0 0 700 600 10;
#X obj 50 20 udpreceive 9000;
#X obj 50 50 unpackOSC;
#X obj 50 80 routeOSC /event;
#X obj 50 120 t l l;
#X obj 50 155 bang;
#X obj 50 185 f 0;
#X obj 50 215 + 1;
#X obj 50 245 mod 16;
#X obj 220 215 list prepend;
#X obj 220 275 clone voice 16;
#X obj 220 320 *~ 0.3;
#X obj 420 275 receive~ rev_in;
#X obj 420 310 freeverb~;
#X obj 420 355 *~ 0.5;
#X obj 510 355 *~ 0.5;
#X obj 220 365 +~;
#X obj 310 365 +~;
#X obj 50 440 clone choir_voice 24;
#X obj 50 490 *~ 0.2;
#X obj 220 430 +~;
#X obj 310 430 +~;
#X obj 220 490 dac~;
#X connect 0 0 1 0;
#X connect 1 0 2 0;
#X connect 2 0 3 0;
#X connect 3 1 4 0;
#X connect 4 0 5 0;
#X connect 5 0 6 0;
#X connect 6 0 7 0;
#X connect 7 0 5 1;
#X connect 7 0 8 1;
#X connect 3 0 8 0;
#X connect 8 0 9 0;
#X connect 9 0 10 0;
#X connect 10 0 15 0;
#X connect 10 0 16 0;
#X connect 11 0 12 0;
#X connect 12 0 13 0;
#X connect 12 1 14 0;
#X connect 13 0 15 1;
#X connect 14 0 16 1;
#X connect 15 0 19 0;
#X connect 16 0 20 0;
#X connect 17 0 18 0;
#X connect 18 0 19 1;
#X connect 18 0 20 1;
#X connect 19 0 21 0;
#X connect 20 0 21 1;
