#N canvas 0 0 500 420 10;
#X obj 50 20 inlet;
#X obj 50 50 unpack f f f f;
#X obj 50 100 osc~;
#X obj 200 100 line~;
#X obj 50 150 *~;
#X obj 150 70 t f b;
#X obj 150 95 delay 10;
#X obj 260 95 pack f 10;
#X obj 260 70 f;
#X msg 150 120 0 1;
#X obj 370 70 f;
#X obj 370 95 * -1;
#X obj 370 120 + 1;
#X obj 50 200 *~;
#X obj 50 250 outlet~;
#X obj 200 200 *~;
#X obj 200 250 send~ rev_in;
#X connect 0 0 1 0;
#X connect 1 0 2 0;
#X connect 1 1 5 0;
#X connect 1 2 10 0;
#X connect 1 3 8 1;
#X connect 5 0 7 0;
#X connect 5 1 6 0;
#X connect 5 1 9 0;
#X connect 6 0 8 0;
#X connect 7 0 3 0;
#X connect 8 0 4 1;
#X connect 9 0 3 0;
#X connect 10 0 11 0;
#X connect 11 0 12 0;
#X connect 12 0 13 1;
#X connect 2 0 4 0;
#X connect 3 0 4 1;
#X connect 4 0 13 0;
#X connect 4 0 15 0;
#X connect 10 0 15 1;
#X connect 13 0 14 0;
#X connect 15 0 16 0;
